<svg width="40" height="40" viewBox="0 0 40 40" xmlns="http://www.w3.org/2000/svg" class="icon">
  <path
    d="M34.844 30.156h-3.125v-3.125a.314.314 0 0 0-.313-.313h-1.875a.314.314 0 0 0-.313.313v3.125h-3.125a.314.314 0 0 0-.313.313v1.875c0 .172.141.313.313.313h3.125v3.125c0 .172.141.313.313.313h1.875a.314.314 0 0 0 .313-.313v-3.125h3.125a.314.314 0 0 0 .313-.313v-1.875a.314.314 0 0 0-.313-.313M14.59 19.469q-.054-.51-.055-1.031c0-.621.059-1.227.168-1.816a.315.315 0 0 0-.176-.344 4.9 4.9 0 0 1-1.441-.98 4.98 4.98 0 0 1-1.512-3.727 4.97 4.97 0 0 1 1.418-3.344 4.98 4.98 0 0 1 3.641-1.512 4.99 4.99 0 0 1 4.156 2.297c.078.121.23.172.363.125a9.7 9.7 0 0 1 2.16-.484.313.313 0 0 0 .246-.453 7.83 7.83 0 0 0-6.863-4.293c-4.328-.066-7.938 3.484-7.938 7.813a7.8 7.8 0 0 0 2.898 6.074 11.7 11.7 0 0 0-3.379 2.359 11.62 11.62 0 0 0-3.43 7.969.313.313 0 0 0 .313.32H7.35a.31.31 0 0 0 .313-.301 8.83 8.83 0 0 1 2.605-5.996 8.8 8.8 0 0 1 4.09-2.332.32.32 0 0 0 .23-.344m17.6-1.031a7.817 7.817 0 0 0-7.691-7.813c-4.329-.066-7.934 3.484-7.934 7.813a7.8 7.8 0 0 0 2.898 6.074 11.8 11.8 0 0 0-3.375 2.359 11.62 11.62 0 0 0-3.43 7.965.313.313 0 0 0 .313.32h2.188a.31.31 0 0 0 .313-.301 8.83 8.83 0 0 1 2.605-5.996 8.85 8.85 0 0 1 6.3-2.609 7.813 7.813 0 0 0 7.813-7.813m-4.277 3.535c-.946.946-2.2 1.466-3.536 1.466s-2.59-.52-3.535-1.465a4.97 4.97 0 0 1-1.465-3.586 5 5 0 0 1 1.418-3.438 4.98 4.98 0 0 1 3.531-1.512 5.03 5.03 0 0 1 3.555 1.43 4.96 4.96 0 0 1 1.5 3.57 4.98 4.98 0 0 1-1.469 3.535" />
</svg>
