<svg width="40px" height="40px" viewBox="0 0 1.2 1.2" fill="none" xmlns="http://www.w3.org/2000/svg"><path d="M0.5 0.2a0.2 0.2 0 1 0 0 0.4 0.2 0.2 0 0 0 0 -0.4M0.2 0.4a0.3 0.3 0 1 1 0.6 0A0.3 0.3 0 0 1 0.2 0.4m0.75 0.15a0.05 0.05 0 0 1 0.05 0.05v0.05h0.05a0.05 0.05 0 1 1 0 0.1h-0.05v0.05a0.05 0.05 0 1 1 -0.1 0v-0.05h-0.05a0.05 0.05 0 1 1 0 -0.1h0.05v-0.05a0.05 0.05 0 0 1 0.05 -0.05M0.325 0.9C0.262 0.9 0.2 0.961 0.2 1.05a0.05 0.05 0 1 1 -0.1 0c0 -0.132 0.095 -0.25 0.225 -0.25h0.35c0.13 0 0.225 0.118 0.225 0.25a0.05 0.05 0 1 1 -0.1 0c0 -0.089 -0.062 -0.15 -0.125 -0.15z" fill="#0D0D0D"/></svg>